<?xml version="1.0" standalone="no"?>
<!DOCTYPE svg PUBLIC "-//W3C//DTD SVG 20010904//EN"
 "http://www.w3.org/TR/2001/REC-SVG-20010904/DTD/svg10.dtd">
<svg version="1.0" xmlns="http://www.w3.org/2000/svg"
 width="700.000000pt" height="700.000000pt" viewBox="0 0 700.000000 700.000000"
 preserveAspectRatio="xMidYMid meet">
<metadata>
Created by potrace 1.11, written by Peter Selinger 2001-2013
</metadata>
<g transform="translate(0.000000,700.000000) scale(0.100000,-0.100000)"
fill="#000000" stroke="none">
<path d="M3308 6995 c-2 -2 -37 -6 -78 -9 -92 -8 -122 -11 -180 -20 -25 -4
-58 -10 -75 -12 -327 -48 -707 -170 -1029 -330 -890 -442 -1526 -1202 -1810
-2164 -22 -76 -60 -231 -72 -300 -17 -92 -25 -141 -30 -180 -3 -25 -7 -56 -10
-70 -26 -158 -26 -653 0 -821 3 -13 7 -45 10 -70 4 -25 9 -57 11 -70 3 -13 7
-40 9 -59 2 -20 11 -65 20 -102 8 -36 17 -77 20 -89 11 -55 49 -189 82 -287
219 -654 612 -1221 1149 -1661 82 -67 299 -217 370 -257 11 -6 49 -28 85 -49
101 -58 313 -158 442 -209 186 -73 502 -162 650 -183 22 -3 45 -6 51 -7 7 -2
35 -6 62 -10 28 -4 61 -10 75 -12 192 -30 681 -24 899 11 20 3 52 8 71 11 19
3 42 7 50 9 8 2 31 7 50 10 19 3 99 21 178 40 288 69 606 192 877 338 135 72
382 235 485 320 163 133 169 139 294 262 393 388 680 850 857 1380 22 66 42
127 44 135 2 8 19 80 39 160 37 155 38 159 62 320 24 163 28 238 29 475 0 196
-8 372 -20 430 -2 11 -7 42 -10 69 -3 27 -8 52 -9 55 -2 3 -7 29 -10 56 -25
185 -132 545 -226 761 -91 208 -274 534 -383 681 -221 301 -450 538 -704 733
-81 62 -276 196 -333 229 -199 116 -376 201 -565 271 -223 83 -479 151 -665
176 -25 3 -47 8 -50 9 -3 2 -41 6 -85 10 -44 4 -89 9 -100 12 -22 5 -522 13
-527 8z m986 -590 c279 -30 587 -146 841 -317 135 -91 154 -107 285 -238 205
-207 330 -426 375 -661 40 -211 -11 -437 -132 -586 -70 -86 -56 -114 62 -119
76 -3 231 -39 241 -55 3 -5 12 -9 20 -9 28 0 158 -92 225 -159 111 -111 202
-268 260 -443 27 -85 32 -101 44 -166 3 -15 8 -34 10 -42 2 -8 7 -42 11 -75 3
-33 8 -69 10 -80 5 -25 5 -301 -1 -335 -2 -14 -6 -50 -10 -80 -11 -100 -46
-253 -82 -360 -151 -452 -436 -781 -778 -895 -68 -23 -99 -27 -200 -29 -135
-1 -165 3 -250 33 -71 25 -83 26 -106 5 -16 -14 -16 -20 -3 -62 42 -136 47
-269 15 -393 -49 -189 -188 -391 -361 -522 -30 -23 -57 -44 -60 -47 -17 -18
-148 -95 -225 -133 -153 -75 -365 -143 -515 -166 -36 -6 -85 -13 -110 -17
-110 -16 -371 -11 -515 10 -215 32 -468 131 -609 239 -224 171 -335 374 -333
607 1 89 -2 104 -18 116 -26 19 -45 17 -70 -6 -30 -28 -168 -98 -218 -111 -99
-25 -128 -28 -237 -25 -140 4 -246 33 -396 107 -84 41 -234 139 -280 183 -226
214 -337 361 -453 601 -50 102 -109 254 -126 322 -47 184 -57 256 -60 418 -4
189 8 287 51 425 84 270 256 457 484 527 95 29 99 31 104 60 5 25 0 31 -49 67
-91 67 -198 200 -220 276 -4 14 -11 30 -16 36 -5 6 -18 51 -30 100 -27 111
-29 280 -5 409 118 639 733 1247 1386 1371 93 18 262 23 353 11 200 -27 387
-135 495 -287 30 -41 63 -78 73 -82 27 -10 52 18 79 88 102 273 383 461 734
491 39 3 72 7 74 8 5 4 174 -3 236 -10z"/>
<path d="M3238 5252 c-8 -9 -25 -57 -37 -106 -26 -105 -58 -191 -113 -301 -37
-72 -141 -243 -157 -255 -3 -3 -26 -32 -50 -64 -62 -83 -231 -250 -329 -324
-218 -166 -467 -285 -688 -328 -159 -30 -163 -57 -22 -151 112 -73 126 -84
236 -188 215 -203 408 -525 496 -827 26 -90 50 -198 61 -283 12 -79 13 -296 3
-366 -16 -111 -13 -127 28 -133 16 -3 83 45 141 100 7 7 29 22 50 35 21 13 43
28 49 34 6 5 55 33 110 60 54 28 101 52 104 55 3 3 28 13 55 24 28 10 70 26
95 35 25 10 81 27 125 39 78 21 97 25 160 37 17 3 39 7 50 10 61 13 190 20
345 18 163 -1 239 -10 409 -47 54 -12 190 -61 257 -93 79 -37 105 -41 125 -17
11 13 10 24 -5 63 -97 255 -128 408 -129 646 -1 187 5 262 38 420 66 319 207
603 409 823 61 66 69 84 51 108 -11 16 -30 18 -191 17 -139 -1 -204 3 -289 18
-281 50 -578 177 -810 347 -108 79 -255 217 -316 297 -13 17 -26 32 -30 35
-13 10 -139 203 -139 214 -1 20 -35 56 -57 60 -12 3 -27 -3 -35 -12z"/>
</g>
</svg>
